<svg id="visual" viewBox="0 0 900 675" width="900" height="675" xmlns="http://www.w3.org/2000/svg" xmlns:xlink="http://www.w3.org/1999/xlink" version="1.1"><rect x="0" y="0" width="900" height="675" fill="#FFFFF4"></rect><defs><linearGradient id="grad1_0" x1="25%" y1="0%" x2="100%" y2="100%"><stop offset="23.333333333333336%" stop-color="#b5f27a" stop-opacity="1"></stop><stop offset="76.66666666666666%" stop-color="#b5f27a" stop-opacity="1"></stop></linearGradient></defs><defs><linearGradient id="grad1_1" x1="25%" y1="0%" x2="100%" y2="100%"><stop offset="23.333333333333336%" stop-color="#b5f27a" stop-opacity="1"></stop><stop offset="76.66666666666666%" stop-color="#d8f59f" stop-opacity="1"></stop></linearGradient></defs><defs><linearGradient id="grad1_2" x1="25%" y1="0%" x2="100%" y2="100%"><stop offset="23.333333333333336%" stop-color="#f1f9c8" stop-opacity="1"></stop><stop offset="76.66666666666666%" stop-color="#d8f59f" stop-opacity="1"></stop></linearGradient></defs><defs><linearGradient id="grad1_3" x1="25%" y1="0%" x2="100%" y2="100%"><stop offset="23.333333333333336%" stop-color="#f1f9c8" stop-opacity="1"></stop><stop offset="76.66666666666666%" stop-color="#fffff4" stop-opacity="1"></stop></linearGradient></defs><defs><linearGradient id="grad2_0" x1="0%" y1="0%" x2="75%" y2="100%"><stop offset="23.333333333333336%" stop-color="#b5f27a" stop-opacity="1"></stop><stop offset="76.66666666666666%" stop-color="#b5f27a" stop-opacity="1"></stop></linearGradient></defs><defs><linearGradient id="grad2_1" x1="0%" y1="0%" x2="75%" y2="100%"><stop offset="23.333333333333336%" stop-color="#d8f59f" stop-opacity="1"></stop><stop offset="76.66666666666666%" stop-color="#b5f27a" stop-opacity="1"></stop></linearGradient></defs><defs><linearGradient id="grad2_2" x1="0%" y1="0%" x2="75%" y2="100%"><stop offset="23.333333333333336%" stop-color="#d8f59f" stop-opacity="1"></stop><stop offset="76.66666666666666%" stop-color="#f1f9c8" stop-opacity="1"></stop></linearGradient></defs><defs><linearGradient id="grad2_3" x1="0%" y1="0%" x2="75%" y2="100%"><stop offset="23.333333333333336%" stop-color="#fffff4" stop-opacity="1"></stop><stop offset="76.66666666666666%" stop-color="#f1f9c8" stop-opacity="1"></stop></linearGradient></defs><g transform="translate(900, 0)"><path d="M0 534.4C-70 528.3 -140 522.2 -204.5 493.7C-269 465.2 -328.1 414.2 -354.3 354.3C-380.4 294.3 -373.7 225.5 -398.2 164.9C-422.7 104.4 -478.5 52.2 -534.4 0L0 0Z" fill="#f9fcde"></path><path d="M0 400.8C-52.5 396.2 -105 391.7 -153.4 370.3C-201.8 348.9 -246.1 310.6 -265.7 265.7C-285.3 220.8 -280.2 169.1 -298.6 123.7C-317 78.3 -358.9 39.2 -400.8 0L0 0Z" fill="#e6f7b3"></path><path d="M0 267.2C-35 264.2 -70 261.1 -102.2 246.8C-134.5 232.6 -164.1 207.1 -177.1 177.1C-190.2 147.2 -186.8 112.7 -199.1 82.5C-211.4 52.2 -239.3 26.1 -267.2 0L0 0Z" fill="#c8f38c"></path><path d="M0 133.6C-17.5 132.1 -35 130.6 -51.1 123.4C-67.3 116.3 -82 103.5 -88.6 88.6C-95.1 73.6 -93.4 56.4 -99.5 41.2C-105.7 26.1 -119.6 13.1 -133.6 0L0 0Z" fill="#b5f27a"></path></g><g transform="translate(0, 675)"><path d="M0 -534.4C70.6 -528.5 141.3 -522.5 204.5 -493.7C267.7 -464.9 323.5 -413.1 355.7 -355.7C387.8 -298.2 396.4 -235.1 422.2 -174.9C448.1 -114.7 491.2 -57.3 534.4 0L0 0Z" fill="#f9fcde"></path><path d="M0 -400.8C53 -396.3 106 -391.9 153.4 -370.3C200.8 -348.6 242.6 -309.8 266.8 -266.8C290.9 -223.7 297.3 -176.3 316.7 -131.2C336 -86 368.4 -43 400.8 0L0 0Z" fill="#e6f7b3"></path><path d="M0 -267.2C35.3 -264.2 70.6 -261.3 102.2 -246.8C133.9 -232.4 161.8 -206.6 177.8 -177.8C193.9 -149.1 198.2 -117.6 211.1 -87.4C224 -57.3 245.6 -28.7 267.2 0L0 0Z" fill="#c8f38c"></path><path d="M0 -133.6C17.7 -132.1 35.3 -130.6 51.1 -123.4C66.9 -116.2 80.9 -103.3 88.9 -88.9C97 -74.6 99.1 -58.8 105.6 -43.7C112 -28.7 122.8 -14.3 133.6 0L0 0Z" fill="#b5f27a"></path></g></svg>