<svg width="57" height="73" viewBox="0 0 57 73" fill="none" xmlns="http://www.w3.org/2000/svg">
<mask id="path-1-inside-1_14_179" fill="white">
<path fill-rule="evenodd" clip-rule="evenodd" d="M46.9657 0H0V73H56.3856V10.6845L46.9657 0Z"/>
</mask>
<path fill-rule="evenodd" clip-rule="evenodd" d="M46.9657 0H0V73H56.3856V10.6845L46.9657 0Z" fill="white"/>
<path d="M0 0V-3H-3V0H0ZM46.9657 0L49.216 -1.98397L48.3202 -3H46.9657V0ZM0 73H-3V76H0V73ZM56.3856 73V76H59.3856V73H56.3856ZM56.3856 10.6845H59.3856V9.55083L58.6359 8.70049L56.3856 10.6845ZM0 3H46.9657V-3H0V3ZM3 73V0H-3V73H3ZM56.3856 70H0V76H56.3856V70ZM53.3856 10.6845V73H59.3856V10.6845H53.3856ZM58.6359 8.70049L49.216 -1.98397L44.7154 1.98397L54.1353 12.6684L58.6359 8.70049Z" fill="#33342E" mask="url(#path-1-inside-1_14_179)"/>
<path d="M48.488 9.08231V3.94809L53.0474 9.08231H48.488Z" fill="#33342E" stroke="#33342E" stroke-width="3"/>
<path d="M34.5347 28.507C34.5347 31.9159 31.6398 34.7817 27.94 34.7817C24.2402 34.7817 21.3452 31.9159 21.3452 28.507C21.3452 25.0981 24.2402 22.2324 27.94 22.2324C31.6398 22.2324 34.5347 25.0981 34.5347 28.507Z" fill="white" stroke="#33342E" stroke-width="3"/>
<mask id="path-5-inside-2_14_179" fill="white">
<path d="M43.8684 54.6814C43.8684 52.6054 43.4564 50.5498 42.6559 48.6318C41.8555 46.7139 40.6822 44.9712 39.2031 43.5032C37.724 42.0353 35.9681 40.8708 34.0355 40.0764C32.103 39.2819 30.0318 38.873 27.94 38.873C25.8483 38.873 23.777 39.2819 21.8445 40.0764C19.9119 40.8708 18.156 42.0353 16.6769 43.5032C15.1978 44.9712 14.0246 46.7139 13.2241 48.6318C12.4236 50.5498 12.0116 52.6054 12.0116 54.6814L27.94 54.6814H43.8684Z"/>
</mask>
<path d="M43.8684 54.6814C43.8684 52.6054 43.4564 50.5498 42.6559 48.6318C41.8555 46.7139 40.6822 44.9712 39.2031 43.5032C37.724 42.0353 35.9681 40.8708 34.0355 40.0764C32.103 39.2819 30.0318 38.873 27.94 38.873C25.8483 38.873 23.777 39.2819 21.8445 40.0764C19.9119 40.8708 18.156 42.0353 16.6769 43.5032C15.1978 44.9712 14.0246 46.7139 13.2241 48.6318C12.4236 50.5498 12.0116 52.6054 12.0116 54.6814L27.94 54.6814H43.8684Z" fill="white" stroke="#33342E" stroke-width="6" mask="url(#path-5-inside-2_14_179)"/>
</svg>
