<svg width="1976" height="1492" viewBox="0 0 1976 1492" fill="none" xmlns="http://www.w3.org/2000/svg">
<path d="M422 422H1741V1256H422V422Z" fill="#FFFFF4"/>
<path d="M843 421.5C843 476.852 832.098 531.662 810.915 582.801C789.733 633.94 758.685 680.406 719.546 719.546C680.406 758.685 633.94 789.733 582.801 810.915C531.662 832.098 476.852 843 421.5 843L421.5 675.457C454.85 675.457 487.874 668.888 518.685 656.125C549.496 643.363 577.492 624.657 601.074 601.074C624.656 577.492 643.363 549.496 656.125 518.685C668.888 487.874 675.457 454.85 675.457 421.5H843Z" fill="#B5F27A"/>
<path d="M1505 1256.5C1505 1225.57 1511.09 1194.95 1522.93 1166.38C1534.76 1137.81 1552.11 1111.84 1573.98 1089.98C1595.84 1068.11 1621.81 1050.76 1650.38 1038.93C1678.95 1027.09 1709.57 1021 1740.5 1021L1740.5 1100.44C1720.01 1100.44 1699.71 1104.48 1680.78 1112.32C1661.85 1120.16 1644.64 1131.66 1630.15 1146.15C1615.66 1160.64 1604.16 1177.85 1596.32 1196.78C1588.48 1215.71 1584.44 1236.01 1584.44 1256.5L1505 1256.5Z" fill="#B5F27A"/>
</svg>
