<svg width="109" height="147" viewBox="0 0 109 147" fill="none" xmlns="http://www.w3.org/2000/svg">
<path d="M0 0H92C95.3137 0 98 2.68629 98 6V118H0V0Z" fill="#B38FFF"/>
<rect width="91.0255" height="117.847" rx="8" transform="matrix(0.991445 0.130526 0 1 18.1624 5.94727)" fill="#8B63DF"/>
<path d="M0 1.13379L81.0453 26.299C84.21 27.2817 86.7755 30.7646 86.7755 34.0783V140.199C86.7755 143.513 84.21 145.403 81.0453 144.42L0 119.255V1.13379Z" fill="#B38FFF"/>
<path d="M53.7623 53.0409C52.9165 52.7485 52.0313 52.628 51.1437 52.6537C49.3686 52.7051 47.5085 53.3019 45.5995 54.3351C44.8514 54.74 44.0965 55.234 43.339 55.7717C42.5983 54.7884 41.8589 53.8478 41.1273 52.9975C39.2199 50.7805 37.3647 49.0319 35.5936 47.8807C33.8226 46.7296 32.0603 46.1637 30.613 46.5893C29.1656 47.0149 28.3001 48.3523 27.9118 50.1384C27.5235 51.9245 27.5642 54.2078 27.9542 56.8709C28.0897 57.7959 28.285 58.7828 28.505 59.7948C27.678 59.8005 26.8749 59.8271 26.1301 59.9004C23.8825 60.1217 22.0228 60.6439 20.6685 61.532C19.3143 62.4201 18.4398 63.7368 18.4398 65.4807C18.4398 67.2246 19.3143 69.0821 20.6685 70.8112C22.0228 72.5403 23.8825 74.2197 26.1301 75.8368C26.9265 76.4098 27.7887 76.9707 28.6787 77.5244C28.3586 78.6775 28.0992 79.8125 27.9224 80.9098C27.5321 83.3327 27.4909 85.5908 27.88 87.6226C28.2692 89.6545 29.1352 91.5386 30.5897 92.8696C32.0442 94.2005 33.8143 94.7286 35.5894 94.6771C37.3645 94.6257 39.2226 94.0305 41.1315 92.9973C41.8727 92.5961 42.6225 92.1087 43.3729 91.577C44.1269 92.58 44.8804 93.5383 45.6249 94.4037C47.5324 96.6206 49.3896 98.3698 51.1607 99.521C52.9318 100.672 54.6919 101.237 56.1393 100.812C57.5866 100.386 58.4521 99.0488 58.8404 97.2627C59.2287 95.4766 59.1859 93.1927 58.7959 90.5296C58.6187 89.3192 58.3591 88.0213 58.0375 86.6649C58.9569 86.6664 59.8464 86.6414 60.6666 86.5607C62.9142 86.3394 64.7739 85.8149 66.1282 84.9268C67.4825 84.0388 68.3569 82.7243 68.3569 80.9804C68.3569 79.2364 67.4825 77.3767 66.1282 75.6476C64.7739 73.9185 62.9142 72.2413 60.6666 70.6242C59.9112 70.0807 59.0957 69.548 58.2557 69.0216C58.4775 68.141 58.6745 67.2692 58.8107 66.4233C59.2011 64.0004 59.2423 61.7401 58.8531 59.7082C58.464 57.6764 57.5959 55.7938 56.1414 54.4629C55.4141 53.7974 54.608 53.3333 53.7623 53.0409ZM53.6627 55.3214C54.1934 55.5014 54.6461 55.7742 55.0334 56.1286C55.8079 56.8373 56.3804 57.9264 56.6858 59.5211C56.9913 61.1158 56.9807 63.1389 56.6202 65.377C56.4967 66.1433 56.3175 66.9404 56.1138 67.7509C53.8957 66.5032 51.4652 65.3335 48.8748 64.2853C47.5734 61.9933 46.2359 59.8605 44.8877 57.9163C45.6005 57.409 46.3087 56.9475 46.9999 56.5734C48.7633 55.619 50.4327 55.1153 51.8259 55.075C52.5225 55.0548 53.132 55.1415 53.6627 55.3214ZM33.0789 48.9367C33.6127 49.0868 34.2235 49.3788 34.9221 49.8329C36.3193 50.741 37.9916 52.2819 39.7566 54.3332C40.4338 55.1203 41.1264 56.0019 41.8243 56.9296C40.4664 58.0457 39.1194 59.3628 37.8096 60.8606C35.2284 60.3074 32.8066 59.9744 30.5981 59.8503C30.3958 58.9179 30.2189 58.0136 30.096 57.1743C29.7352 54.7102 29.7262 52.6785 30.0325 51.2694C30.3388 49.8604 30.916 49.1236 31.6977 48.8938C32.0885 48.7788 32.5452 48.7865 33.0789 48.9367ZM43.3729 59.0808C44.2564 60.3619 45.1404 61.7385 46.0169 63.196C45.1556 62.891 44.2838 62.598 43.3984 62.323C42.4953 62.0426 41.6069 61.7898 40.729 61.5563C41.6057 60.6421 42.4891 59.814 43.3729 59.0808ZM43.3984 64.6168C44.8734 65.0748 46.3111 65.5847 47.7096 66.1263C48.6718 67.8722 49.6122 69.6995 50.5082 71.6027C51.2955 73.275 52.0079 74.9219 52.6564 76.5311C52.0011 77.7542 51.2767 78.9742 50.4785 80.174C49.7759 81.23 49.0422 82.2125 48.2964 83.1478C46.7168 82.7955 45.08 82.3642 43.3984 81.842C41.6763 81.3073 40.0027 80.7062 38.388 80.06C37.6546 78.6822 36.9333 77.2641 36.2419 75.7955C35.4456 74.104 34.7247 72.4401 34.0704 70.8133C34.7274 69.5856 35.4516 68.3602 36.2525 67.1562C37.1438 65.8165 38.0814 64.5812 39.0384 63.4382C40.4519 63.7674 41.9063 64.1535 43.3984 64.6168ZM50.5039 67.2779C52.2912 68.0664 53.9694 68.912 55.5312 69.7861C55.0676 71.2336 54.4966 72.7185 53.8046 74.219C53.3554 73.1727 52.8901 72.1183 52.3873 71.0504C51.7784 69.757 51.1453 68.5058 50.5039 67.2779ZM36.1784 62.8474C35.5502 63.6624 34.9321 64.5035 34.3352 65.4007C33.826 66.1661 33.3511 66.9408 32.8967 67.7181C32.2108 65.8 31.6432 63.971 31.1828 62.2457C32.7337 62.3373 34.4027 62.5324 36.1784 62.8474ZM57.6773 71.0559C58.4462 71.5382 59.1888 72.0231 59.87 72.5131C61.9419 74.0039 63.5809 75.5162 64.6431 76.8724C65.7053 78.2286 66.1663 79.3506 66.1663 80.3002C66.1663 81.2497 65.7053 82.0854 64.6431 82.782C63.5809 83.4786 61.9419 83.9731 59.87 84.1771C59.1131 84.2516 58.2814 84.2741 57.4167 84.2716C56.8 82.0825 56.0127 79.754 55.0758 77.3356C56.153 75.2276 57.0233 73.1163 57.6773 71.0559ZM29.0834 62.1883C29.7299 64.6299 30.5891 67.2547 31.651 70.0022C30.708 71.8492 29.9168 73.6994 29.2973 75.5159C28.4632 74.9979 27.6597 74.4753 26.9267 73.9479C24.8548 72.4572 23.2158 70.9449 22.1536 69.5887C21.0914 68.2324 20.6304 67.1105 20.6304 66.1609C20.6304 65.2113 21.0914 64.3756 22.1536 63.6791C23.2158 62.9825 24.8548 62.488 26.9267 62.284C27.5974 62.2179 28.3275 62.194 29.0834 62.1883ZM43.3984 68.013C40.4159 67.087 37.9749 68.885 37.9749 72.0079C37.9749 75.1308 40.4159 78.4448 43.3984 79.3708C46.3808 80.2969 48.8218 78.4989 48.8218 75.376C48.8218 72.253 46.3808 68.9391 43.3984 68.013ZM43.3984 70.2846C45.2084 70.8466 46.6524 72.8071 46.6524 74.7024C46.6524 76.5976 45.2084 77.6613 43.3984 77.0993C41.5883 76.5373 40.1443 74.5768 40.1443 72.6815C40.1443 70.7862 41.5883 69.7226 43.3984 70.2846ZM53.8322 79.6159C54.401 81.2023 54.8955 82.7353 55.3109 84.1945C54.0064 84.1061 52.6175 83.9417 51.1565 83.6986C51.577 83.1266 51.9924 82.5397 52.3979 81.9301C52.9063 81.166 53.3785 80.3918 53.8322 79.6159ZM32.9222 73.1254C33.3783 74.1895 33.8534 75.2619 34.3649 76.3485C34.7654 77.1991 35.1743 78.0352 35.5894 78.8583C34.1327 78.1945 32.748 77.4967 31.4477 76.7759C31.8612 75.5781 32.3559 74.3551 32.9222 73.1254ZM30.8227 78.7868C32.7858 79.8833 34.9136 80.9181 37.1698 81.8624C38.6763 84.6117 40.2448 87.1477 41.8243 89.4302C41.1181 89.9319 40.4182 90.3912 39.7333 90.7619C37.9699 91.7163 36.2983 92.2171 34.9051 92.2574C33.5119 92.2978 32.4722 91.9125 31.6977 91.2038C30.9231 90.4951 30.3527 89.4067 30.0473 87.812C29.7419 86.2173 29.7503 84.1957 30.1109 81.9576C30.2744 80.9423 30.5189 79.8766 30.8227 78.7868ZM55.938 86.5942C56.2441 87.88 56.4896 89.1031 56.6541 90.2261C57.0149 92.6903 57.0239 94.7198 56.7176 96.1288C56.4113 97.5379 55.8363 98.2775 55.0546 98.5073C54.2729 98.7372 53.2252 98.4758 51.828 97.5676C50.4308 96.6594 48.7585 95.1164 46.9935 93.0651C46.3036 92.2632 45.5989 91.3645 44.8877 90.4169C46.4774 89.1117 48.0576 87.5423 49.5739 85.7184C51.8359 86.1787 53.9695 86.4694 55.938 86.5942ZM40.0002 82.9742C41.1139 83.3835 42.2423 83.7768 43.3984 84.1358C44.5161 84.4829 45.6079 84.7815 46.6863 85.0569C45.584 86.272 44.4603 87.3389 43.3412 88.2663C42.2227 86.6414 41.1011 84.8748 40.0002 82.9742Z" fill="#FFFFF4"/>
</svg>
