<svg width="154" height="154" viewBox="0 0 154 154" fill="none" xmlns="http://www.w3.org/2000/svg">
<circle cx="77" cy="77" r="77" fill="#B5F27A"/>
<path d="M66.4827 23.6249L66.3858 23.6493C66.4551 24.3606 66.2494 25.0175 65.7688 25.62C65.2881 26.2224 64.5371 26.6524 63.5158 26.9099C62.74 27.1054 61.9785 27.1393 61.2313 27.0114C60.484 26.8835 59.7849 26.5923 59.134 26.1376C58.4831 25.6829 57.9063 25.0583 57.4035 24.2638C56.9006 23.4693 56.5058 22.5031 56.219 21.3654C55.9322 20.2277 55.8266 19.1817 55.9023 18.2276C55.978 17.2735 56.206 16.4322 56.5861 15.7039C56.9792 14.9722 57.5116 14.3568 58.1832 13.8574C58.8548 13.3581 59.6496 12.9927 60.5676 12.7613C61.7829 12.4549 62.8969 12.4559 63.9097 12.7644C64.9193 13.0599 65.8082 13.6677 66.5764 14.5878L64.5188 16.571C64.1783 16.0931 63.7426 15.7285 63.2118 15.4773C62.6777 15.2132 62.0163 15.1806 61.2276 15.3794C60.3097 15.6108 59.646 16.06 59.2366 16.727C58.8273 17.3939 58.766 18.2963 59.0528 19.434L59.6004 21.6061C59.884 22.7309 60.3657 23.4963 61.0456 23.9025C61.7223 24.2956 62.5196 24.3765 63.4375 24.1451C63.7995 24.0538 64.1324 23.9287 64.436 23.7696C64.7364 23.5976 64.9883 23.3966 65.1915 23.1666C65.3916 22.9237 65.5252 22.6631 65.5926 22.3849C65.6729 22.1034 65.6707 21.7945 65.5859 21.4584L65.4148 20.7796L62.8937 21.4152L62.2728 18.9523L67.6059 17.6078L69.5078 25.1517L67.0254 25.7775L66.4827 23.6249Z" fill="#FFFFF4"/>
<path d="M79.758 24.9268L81.7853 11.1148L91.1846 12.4944L90.7925 15.1658L84.401 14.2276L83.9857 17.0573L89.4669 17.8618L89.0777 20.5134L83.5965 19.7089L83.1579 22.6969L89.5494 23.635L89.1573 26.3064L79.758 24.9268Z" fill="#FFFFF4"/>
<path d="M103.017 32.6305C102.227 32.1588 101.585 31.5964 101.09 30.9434C100.594 30.2904 100.272 29.5696 100.122 28.781C99.9782 27.9809 100.01 27.1222 100.216 26.2049C100.429 25.2761 100.84 24.3023 101.448 23.2835C102.057 22.2647 102.716 21.4471 103.426 20.8306C104.143 20.2026 104.884 19.7678 105.649 19.5262C106.422 19.2732 107.213 19.2099 108.023 19.3363C108.832 19.4627 109.632 19.7619 110.422 20.2336C111.212 20.7054 111.854 21.2678 112.35 21.9208C112.845 22.5738 113.164 23.3003 113.307 24.1004C113.458 24.889 113.426 25.7477 113.213 26.6765C113.007 27.5938 112.599 28.5619 111.991 29.5806C111.382 30.5994 110.72 31.4228 110.003 32.0507C109.293 32.6673 108.552 33.102 107.779 33.3551C107.014 33.5967 106.226 33.6543 105.417 33.5279C104.607 33.4014 103.807 33.1023 103.017 32.6305ZM104.402 30.3125C105.192 30.7843 105.958 30.8926 106.7 30.6373C107.455 30.3888 108.119 29.7838 108.693 28.8223L109.76 27.0366C110.334 26.0751 110.552 25.2034 110.413 24.4217C110.286 23.6467 109.827 23.0234 109.037 22.5516C108.248 22.0798 107.476 21.9682 106.722 22.2166C105.979 22.4719 105.32 23.0803 104.746 24.0419L103.679 25.8276C103.105 26.7891 102.882 27.6573 103.009 28.4323C103.148 29.214 103.612 29.8408 104.402 30.3125Z" fill="#FFFFF4"/>
<path d="M116.53 44.0269L114.715 41.5879L125.915 33.2549L129.867 38.5661C130.249 39.0795 130.51 39.6085 130.649 40.1531C130.788 40.6976 130.805 41.2337 130.699 41.7613C130.611 42.2916 130.408 42.8002 130.089 43.287C129.77 43.7737 129.343 44.2161 128.808 44.614C128.048 45.1791 127.258 45.5014 126.436 45.5809C125.622 45.6712 124.833 45.4694 124.066 44.9758L121.305 50.4453L119.288 47.7335L121.939 42.7196L120.638 40.9706L116.53 44.0269ZM124.602 42.0099C124.872 42.3736 125.174 42.5894 125.507 42.6574C125.859 42.728 126.217 42.6281 126.581 42.3575L127.287 41.8322C127.65 41.5616 127.843 41.2517 127.866 40.9024C127.907 40.5559 127.793 40.2008 127.522 39.8371L125.612 37.2697L122.692 39.4425L124.602 42.0099Z" fill="#FFFFF4"/>
<path d="M129.375 66.4829L129.351 66.386C128.64 66.4553 127.983 66.2496 127.38 65.769C126.778 65.2883 126.348 64.5373 126.09 63.5159C125.895 62.7402 125.861 61.9787 125.989 61.2315C126.117 60.4842 126.408 59.7851 126.863 59.1342C127.317 58.4833 127.942 57.9065 128.737 57.4036C129.531 56.9008 130.497 56.506 131.635 56.2192C132.773 55.9323 133.819 55.8268 134.773 55.9025C135.727 55.9782 136.568 56.2062 137.296 56.5863C138.028 56.9794 138.644 57.5117 139.143 58.1834C139.642 58.855 140.008 59.6498 140.239 60.5678C140.545 61.7831 140.544 62.8971 140.236 63.9099C139.94 64.9195 139.333 65.8083 138.412 66.5766L136.429 64.519C136.907 64.1785 137.272 63.7428 137.523 63.2119C137.787 62.6778 137.82 62.0165 137.621 61.2278C137.39 60.3099 136.94 59.6462 136.273 59.2368C135.606 58.8275 134.704 58.7662 133.566 59.053L131.394 59.6006C130.269 59.8842 129.504 60.3659 129.098 61.0458C128.705 61.7225 128.624 62.5198 128.855 63.4377C128.946 63.7997 129.072 64.1325 129.231 64.4362C129.403 64.7366 129.604 64.9885 129.834 65.1917C130.077 65.3917 130.337 65.5254 130.615 65.5928C130.897 65.6731 131.206 65.6708 131.542 65.5861L132.221 65.415L131.585 62.8939L134.048 62.2729L135.393 67.6061L127.849 69.5079L127.223 67.0256L129.375 66.4829Z" fill="#FFFFF4"/>
<path d="M128.074 79.7583L141.886 81.7857L140.506 91.185L137.835 90.7928L138.773 84.4013L135.943 83.986L135.139 89.4673L132.487 89.0781L133.292 83.5968L130.304 83.1582L129.366 89.5497L126.694 89.1576L128.074 79.7583Z" fill="#FFFFF4"/>
<path d="M106.563 118.024C107.323 117.459 108.095 117.067 108.88 116.849C109.673 116.641 110.458 116.613 111.236 116.766C112.022 116.929 112.796 117.276 113.556 117.807C114.325 118.348 115.063 119.095 115.772 120.047C116.472 120.988 116.975 121.91 117.281 122.813C117.595 123.726 117.721 124.588 117.659 125.398C117.605 126.219 117.369 126.985 116.95 127.696C116.532 128.406 115.943 129.044 115.183 129.609C114.145 130.381 113.13 130.804 112.138 130.877C111.154 130.961 110.12 130.7 109.037 130.093L110.327 127.438C110.827 127.797 111.341 127.997 111.869 128.036C112.394 128.094 112.962 127.896 113.571 127.443C114.288 126.909 114.691 126.244 114.779 125.447C114.865 124.669 114.577 123.836 113.917 122.948L112.579 121.151C111.919 120.263 111.2 119.743 110.421 119.591C109.641 119.457 108.892 119.657 108.175 120.19C107.576 120.636 107.219 121.15 107.105 121.734C106.988 122.336 107.015 122.931 107.186 123.518L104.337 123.843C104.118 122.677 104.175 121.604 104.509 120.624C104.841 119.662 105.526 118.796 106.563 118.024Z" fill="#FFFFF4"/>
<path d="M92.7381 125.517L96.1507 139.054L93.2029 139.797L90.4503 128.879L85.2917 130.179L84.6317 127.561L92.7381 125.517Z" fill="#FFFFF4"/>
<path d="M65.7618 126.976L66.269 130.406L70.8796 131.082L72.3512 127.943L75.3985 128.39L68.82 141.534L65.0998 140.988L62.6353 126.517L65.7618 126.976ZM67.4003 138.536L67.4992 138.551L69.7926 133.53L66.6265 133.066L67.4003 138.536Z" fill="#FFFFF4"/>
<path d="M51.9439 121.82L54.5537 123.379L47.3951 135.364L41.7118 131.969C41.1623 131.641 40.7191 131.252 40.382 130.802C40.045 130.353 39.8245 129.864 39.7206 129.336C39.5984 128.812 39.5915 128.265 39.7002 127.693C39.8088 127.121 40.034 126.549 40.3759 125.976C40.8614 125.164 41.4684 124.563 42.1971 124.176C42.9143 123.781 43.7213 123.665 44.618 123.828L45.0758 117.718L47.9775 119.451L47.4468 125.098L49.3183 126.216L51.9439 121.82ZM45.2583 126.773C44.8692 126.54 44.5077 126.456 44.174 126.521C43.822 126.59 43.5297 126.82 43.2973 127.209L42.846 127.964C42.6135 128.354 42.5537 128.714 42.6664 129.045C42.7608 129.381 43.0026 129.665 43.3918 129.898L46.139 131.539L48.0056 128.414L45.2583 126.773Z" fill="#FFFFF4"/>
<path d="M37.0011 109.687L35.0595 111.132L33.985 109.688L26.6681 115.132L27.7425 116.576L25.801 118.02L21.8374 112.693L23.779 111.249L24.8534 112.693L32.1704 107.249L31.0959 105.805L33.0375 104.36L37.0011 109.687Z" fill="#FFFFF4"/>
<path d="M14.3541 97.7699L13.0682 92.6695C12.8433 91.7774 12.7802 90.927 12.8788 90.1184C12.9775 89.3097 13.246 88.5751 13.6845 87.9145C14.1101 87.2572 14.7137 86.6788 15.4953 86.1792C16.2639 85.6829 17.2107 85.293 18.3355 85.0094C19.4603 84.7259 20.4852 84.6187 21.4102 84.688C22.3223 84.7606 23.1279 84.9838 23.8272 85.3575C24.5135 85.7345 25.0918 86.2556 25.562 86.9208C26.0322 87.5861 26.3798 88.3647 26.6047 89.2568L27.8905 94.3572L14.3541 97.7699ZM23.9866 89.9169C23.7649 89.0377 23.3449 88.4079 22.7265 88.0276C22.1081 87.6472 21.2559 87.5939 20.1699 87.8677L18.0754 88.3958C16.9894 88.6695 16.2643 89.1205 15.9001 89.7486C15.5359 90.3766 15.4647 91.1303 15.6863 92.0094L16.229 94.1621L24.5293 92.0695L23.9866 89.9169Z" fill="#FFFFF4"/>
<path d="M23.8551 65.2546L23.8406 65.3535C24.5243 65.5617 25.0525 66.0031 25.4251 66.6777C25.7978 67.3523 25.9076 68.2107 25.7546 69.2528C25.6384 70.0443 25.3783 70.7608 24.9742 71.4023C24.5701 72.0437 24.0335 72.5781 23.3643 73.0055C22.6952 73.4328 21.8973 73.7268 20.9709 73.8872C20.0444 74.0477 19.0007 74.0428 17.8398 73.8724C16.679 73.702 15.6722 73.3992 14.8197 72.9642C13.9672 72.5291 13.2772 71.9966 12.7498 71.3666C12.2243 70.7235 11.8594 69.9961 11.6551 69.1845C11.4508 68.3729 11.4174 67.4988 11.5548 66.5622C11.7368 65.3221 12.1641 64.2933 12.8367 63.4756C13.496 62.656 14.3977 62.0674 15.5418 61.7097L16.5866 64.3696C16.0147 64.5013 15.5112 64.7643 15.076 65.1586C14.6276 65.551 14.3443 66.1495 14.2262 66.9543C14.0887 67.8909 14.2498 68.6759 14.7093 69.3094C15.1689 69.9428 15.9791 70.3448 17.14 70.5152L19.3562 70.8405C20.5039 71.0089 21.3955 70.8568 22.0309 70.384C22.6531 69.9094 23.0329 69.2037 23.1704 68.2671C23.2246 67.8977 23.2363 67.5423 23.2056 67.2009C23.1617 66.8575 23.0723 66.5479 22.9376 66.2721C22.7897 65.9944 22.6001 65.7711 22.3689 65.6024C22.1395 65.4205 21.8533 65.3044 21.5103 65.2541L20.8178 65.1524L20.4402 67.7248L17.9271 67.356L18.7258 61.9143L26.4234 63.0441L26.0516 65.577L23.8551 65.2546Z" fill="#FFFFF4"/>
<path d="M30.0992 53.7538L18.1144 46.5952L22.986 38.4393L25.3039 39.8239L21.9913 45.3698L24.4466 46.8364L27.2875 42.0803L29.5883 43.4546L26.7474 48.2107L29.3401 49.7594L32.6528 44.2134L34.9708 45.5979L30.0992 53.7538Z" fill="#FFFFF4"/>
<path d="M49 54C49 51.2386 51.2386 49 54 49H96.0161C100.987 49 105.016 53.0294 105.016 58V100.016C105.016 102.777 102.777 105.016 100.016 105.016H54C51.2386 105.016 49 102.777 49 100.016V54Z" fill="#CDBAF5"/>
<path d="M59.9519 49H94.0642V61.0562C94.0642 63.8176 91.8256 66.0562 89.0642 66.0562H64.9519C62.1905 66.0562 59.9519 63.8176 59.9519 61.0562V49Z" fill="white"/>
<path d="M97.5015 105.03L56.566 105.069L56.5509 88.9437C56.5452 82.8685 61.4655 77.9391 67.5406 77.9334L87.4761 77.9147C92.9989 77.9095 97.4803 82.3825 97.4854 87.9053L97.5015 105.03Z" fill="white"/>
<rect x="84.1897" y="53.3086" width="5.92478" height="8.43832" rx="2.96239" fill="#CDBAF5"/>
<rect x="62.1063" y="84.5488" width="29.8034" height="3.59077" rx="1.79539" fill="#CBCBCB"/>
<rect x="62.1063" y="91.5508" width="29.8034" height="3.59077" rx="1.79539" fill="#CBCBCB"/>
</svg>
