<svg width="108" height="140" viewBox="0 0 108 140" fill="none" xmlns="http://www.w3.org/2000/svg">
<path fill-rule="evenodd" clip-rule="evenodd" d="M89.93 0H0V139.782H107.968V20.4596L89.93 0Z" fill="#B38FFF"/>
<path d="M89.9734 20.2632V0L107.968 20.2632H89.9734Z" fill="#8B63DF"/>
<rect x="33" y="73" width="43" height="35" rx="5" fill="#FFFFF4"/>
<path d="M45 91C45 88.2386 47.2386 86 50 86H60C62.7614 86 65 88.2386 65 91V110H45V91Z" fill="#B38FFF"/>
<path d="M52.5164 43.7483C53.6501 42.7491 55.3499 42.7491 56.4836 43.7483L78.0426 62.7494C80.1167 64.5775 78.8237 68 76.059 68H32.941C30.1763 68 28.8833 64.5775 30.9574 62.7494L52.5164 43.7483Z" fill="#FFFFF4"/>
</svg>
