<svg width="108" height="140" viewBox="0 0 108 140" fill="none" xmlns="http://www.w3.org/2000/svg">
<path fill-rule="evenodd" clip-rule="evenodd" d="M89.93 0H0V139.782H107.968V20.4596L89.93 0Z" fill="#B5F27A"/>
<path d="M89.9734 20.2632V0L107.968 20.2632H89.9734Z" fill="#96D758"/>
<ellipse cx="53.5" cy="59.5862" rx="15.5" ry="14.887" fill="#FFFFF4"/>
<path d="M84 109.706C84 105.731 83.2111 101.794 81.6783 98.1218C80.1456 94.4493 77.8989 91.1123 75.0668 88.3015C72.2346 85.4906 68.8723 83.2609 65.1718 81.7397C61.4714 80.2185 57.5053 79.4355 53.5 79.4355C49.4947 79.4355 45.5286 80.2185 41.8282 81.7397C38.1277 83.2609 34.7654 85.4906 31.9332 88.3015C29.1011 91.1123 26.8544 94.4493 25.3217 98.1218C23.7889 101.794 23 105.731 23 109.706L53.5 109.706H84Z" fill="#FFFFF4"/>
</svg>
