<svg width="312" height="313" viewBox="0 0 312 313" fill="none" xmlns="http://www.w3.org/2000/svg">
<path d="M0 20C0 8.95431 8.95431 0 20 0H252C285.137 0 312 26.8629 312 60V292C312 303.046 303.046 312 292 312H20C8.95431 312 0 303.046 0 292V20Z" fill="#B5F27A"/>
<path d="M61 0H251V68C251 82.9117 238.912 95 224 95H91C74.4315 95 61 81.5685 61 65V0Z" fill="white"/>
<path d="M270.145 312.082L42.1415 312.295L42.0187 181.214C42.0083 170.168 50.9542 161.205 61.9999 161.195L250.004 161.019C261.049 161.008 270.012 169.954 270.022 181L270.145 312.082Z" fill="white"/>
<rect x="196" y="24" width="33" height="47" rx="10" fill="#B5F27A"/>
<rect x="73" y="198" width="166" height="20" rx="5" fill="#CBCBCB"/>
<rect x="73" y="198" width="166" height="20" rx="5" fill="#CBCBCB"/>
<rect x="73" y="237" width="166" height="20" rx="5" fill="#CBCBCB"/>
</svg>
